<?xml version="1.0" standalone="no"?>
<!DOCTYPE svg PUBLIC "-//W3C//DTD SVG 20010904//EN"
 "http://www.w3.org/TR/2001/REC-SVG-20010904/DTD/svg10.dtd">
<svg version="1.0" xmlns="http://www.w3.org/2000/svg"
 width="512.000000pt" height="512.000000pt" viewBox="0 0 512.000000 512.000000"
 preserveAspectRatio="xMidYMid meet">

<g transform="translate(0.000000,512.000000) scale(0.100000,-0.100000)"
fill="#000000" stroke="none">
<path d="M1799 4889 c-39 -49 -132 -97 -205 -105 -64 -8 -146 13 -252 65 -84
40 -106 42 -129 13 -22 -27 -14 -55 26 -97 36 -36 139 -211 155 -262 19 -61
25 -140 14 -206 -10 -64 -10 -70 9 -89 19 -18 25 -19 78 -8 98 20 206 -9 295
-81 57 -46 125 -152 151 -234 12 -38 27 -76 32 -82 20 -27 64 -14 119 33 160
138 290 194 356 153 21 -13 22 -22 22 -130 0 -100 15 -231 37 -318 5 -22 1
-20 -49 17 -88 67 -141 87 -234 87 -75 0 -86 -3 -165 -42 -201 -101 -316 -250
-385 -501 -3 -9 -16 -4 -41 17 -69 55 -125 73 -227 72 -178 -1 -336 -63 -462
-183 -38 -37 -82 -89 -96 -115 -91 -168 -72 -344 52 -477 103 -110 210 -151
374 -144 55 3 108 8 116 12 13 5 15 -7 17 -71 7 -244 199 -443 426 -443 l49 0
-31 -35 c-38 -44 -74 -112 -95 -184 -21 -70 -21 -227 -1 -306 45 -171 175
-298 327 -320 l47 -7 -15 -31 c-151 -292 -41 -610 239 -692 46 -13 89 -16 196
-13 l138 3 84 42 c195 97 316 280 336 508 l6 72 58 12 c95 19 233 94 304 166
70 70 127 172 145 262 12 55 9 209 -5 263 -6 24 -3 27 48 43 282 89 424 429
295 710 -17 37 -29 68 -27 70 2 1 29 11 59 21 159 54 273 186 320 372 35 134
22 229 -42 322 -60 87 -229 192 -365 227 -82 20 -240 20 -317 0 -33 -9 -85
-29 -117 -46 l-57 -31 -66 70 c-40 42 -90 82 -128 103 -59 32 -69 34 -158 34
-88 0 -100 -3 -161 -33 -37 -19 -92 -56 -122 -83 -31 -27 -58 -46 -60 -42 -7
12 -47 148 -47 160 0 6 25 14 56 18 125 15 247 79 306 159 29 40 37 45 73 46
55 1 161 24 217 48 59 26 122 83 156 141 14 25 41 60 60 76 29 26 35 39 40 83
8 90 -35 152 -108 152 -84 0 -134 -102 -96 -194 13 -30 12 -37 -8 -72 -34 -61
-102 -97 -221 -117 l-31 -6 0 68 c0 121 -65 215 -166 242 -137 36 -260 -112
-204 -246 25 -59 64 -102 121 -131 30 -16 55 -32 55 -36 0 -13 -84 -65 -130
-81 -25 -8 -71 -18 -102 -22 -57 -7 -57 -7 -65 21 -4 16 -8 85 -7 154 0 98 5
142 23 205 37 134 78 193 285 410 229 241 311 361 323 476 8 77 -5 86 -132 92
-55 2 -113 8 -128 12 -46 13 -66 -14 -65 -90 2 -99 -31 -154 -187 -315 -110
-113 -138 -149 -173 -218 l-41 -82 -25 79 c-14 44 -33 138 -42 208 -22 170
-30 200 -54 208 -11 4 -55 -2 -98 -11 -106 -24 -229 -25 -266 -1 -34 23 -80
94 -107 167 -34 93 -77 106 -130 39z m1310 -118 c28 -18 -75 -159 -275 -371
-49 -52 -113 -122 -141 -155 -29 -32 -53 -54 -53 -49 0 28 88 141 202 261 131
138 175 204 185 282 5 38 8 41 37 41 17 0 37 -4 45 -9z m-1253 -43 c77 -152
193 -208 370 -179 38 6 78 12 89 14 17 2 21 -10 37 -123 9 -69 24 -147 32
-175 8 -27 14 -50 13 -52 -2 -1 -25 13 -52 32 -72 52 -125 45 -125 -17 0 -18
9 -33 26 -45 14 -10 40 -30 57 -44 l31 -26 -40 -13 c-46 -15 -118 -57 -192
-112 -30 -22 -54 -38 -55 -36 -1 1 -18 34 -37 72 -83 163 -257 281 -427 288
l-53 2 0 46 c0 75 -28 179 -65 247 -19 35 -35 68 -35 73 0 5 14 5 32 -1 86
-24 216 -4 310 49 29 16 56 30 60 31 4 0 15 -14 24 -31z m1102 -811 c28 -26
46 -89 37 -134 -7 -37 -8 -38 -56 -22 -42 14 -95 63 -103 95 -8 32 9 73 36 84
29 11 57 4 86 -23z m-631 -402 c69 -35 157 -129 196 -212 29 -62 32 -77 32
-163 0 -82 -4 -103 -28 -154 -61 -132 -160 -226 -282 -266 -91 -30 -218 -26
-290 10 -268 131 -220 530 88 742 109 74 195 87 284 43z m795 -219 c50 -18
131 -81 173 -134 l33 -42 -28 -53 c-55 -101 -62 -225 -20 -346 l18 -55 -54
-52 c-238 -233 -624 -125 -624 175 0 201 170 435 365 503 60 21 88 22 137 4z
m701 -117 c119 -19 234 -75 320 -158 65 -61 80 -101 75 -197 -4 -68 -10 -94
-38 -150 -74 -151 -196 -226 -364 -225 -273 1 -502 256 -442 491 33 126 119
204 260 235 78 17 101 18 189 4z m-2316 -110 c93 -35 153 -155 154 -307 0 -75
-3 -92 -31 -148 -113 -231 -459 -296 -635 -120 -84 84 -106 188 -63 303 16 44
38 75 92 129 107 107 218 152 373 153 45 1 94 -4 110 -10z m1014 -386 c9 -32
19 -65 23 -74 5 -12 -4 -18 -47 -28 -29 -6 -81 -25 -115 -41 l-62 -29 -20 46
c-11 25 -19 47 -18 48 2 1 32 16 68 34 36 17 83 47 105 66 22 19 42 34 45 35
3 0 13 -26 21 -57z m-673 -21 c82 -56 135 -74 234 -80 l88 -5 26 -53 c105
-215 6 -495 -214 -600 -47 -23 -71 -28 -137 -28 -68 -1 -89 3 -136 27 -69 34
-132 100 -167 175 -22 48 -27 71 -27 142 0 47 5 92 10 101 6 9 35 37 67 63 61
49 138 157 158 221 14 45 28 75 35 75 3 0 31 -17 63 -38z m1512 -132 c-24 -16
-31 -11 -19 11 8 16 14 18 22 10 9 -9 8 -14 -3 -21z m-688 -75 c43 -36 99 -63
157 -76 129 -27 233 -239 202 -408 -28 -152 -121 -245 -271 -273 -106 -20
-232 26 -322 119 -46 48 -102 141 -124 205 -16 48 -16 51 10 127 14 43 28 115
32 160 6 75 9 84 37 107 50 42 110 61 196 63 43 1 59 -4 83 -24z m868 -52 c46
-28 152 -63 190 -63 24 0 36 -9 60 -42 95 -131 74 -337 -47 -468 -71 -77 -140
-112 -237 -118 -140 -9 -227 44 -288 174 -28 60 -33 82 -36 166 -7 165 45 281
155 349 55 34 123 50 148 35 11 -7 36 -22 55 -33z m-354 19 c-3 -5 -21 -33
-41 -62 -19 -29 -38 -63 -41 -76 -6 -23 -9 -21 -39 28 -36 56 -36 68 -2 68 12
0 45 11 72 24 59 29 58 28 51 18z m-958 -506 c10 -22 9 -23 -29 -23 l-40 0 22
23 c12 13 25 24 29 24 4 0 12 -11 18 -24z m937 -225 c52 -58 146 -118 217
-139 53 -16 59 -20 64 -51 4 -18 4 -69 1 -113 -13 -193 -169 -370 -347 -394
-44 -6 -46 -5 -64 30 -27 50 -132 149 -191 178 -28 14 -73 33 -102 42 -51 17
-52 18 -60 64 -10 64 -7 179 6 228 l11 40 71 12 c105 18 174 54 249 133 l65
67 20 -26 c11 -14 38 -46 60 -71z m-860 60 c231 -104 283 -392 107 -592 -110
-124 -301 -155 -427 -69 -52 36 -100 106 -123 180 -24 81 -21 219 7 292 24 63
96 150 145 175 84 44 209 50 291 14z m410 -630 c68 -39 150 -129 183 -198 23
-51 27 -70 27 -164 0 -102 -1 -107 -38 -183 -88 -177 -250 -274 -439 -264
-128 7 -214 64 -267 177 -22 48 -26 69 -26 146 1 99 23 168 84 263 27 43 40
53 94 72 51 19 75 36 137 100 l75 78 60 1 c49 1 69 -5 110 -28z"/>
</g>
</svg>
